<?xml version="1.0" encoding="UTF-8" standalone="yes"?><svg xmlns="http://www.w3.org/2000/svg" xmlns:xlink="http://www.w3.org/1999/xlink" width="483.33333333333326px" height="500px" viewBox="0 0 483.33333333333326 500" version="1.1">
<g id="surface1">
<path style=" stroke:none;fill-rule:nonzero;fill:rgb(0%,0%,0%);fill-opacity:1;" d="M 450.449219 27.824219 C 450.03125 69.558594 441.660156 110.453125 426.597656 148.394531 C 423.667969 149.238281 420.738281 150.5 418.226562 151.347656 C 368.011719 170.316406 324.910156 200.246094 291.015625 237.347656 C 282.648438 246.621094 274.695312 256.316406 267.582031 266.4375 C 273.019531 255.476562 278.878906 244.933594 285.574219 234.816406 C 312.777344 192.238281 350.019531 155.136719 396.050781 127.738281 C 398.558594 126.050781 401.488281 124.785156 404 123.101562 C 409.4375 96.964844 411.53125 69.980469 410.695312 43 C 417.390625 40.050781 423.667969 37.097656 430.78125 34.570312 C 437.058594 32.039062 443.753906 29.929688 450.449219 27.824219 Z M 450.449219 27.824219 "/>
<path style=" stroke:none;fill-rule:nonzero;fill:rgb(0%,0%,0%);fill-opacity:1;" d="M 429.945312 11.382812 C 432.871094 52.699219 428.269531 94.433594 416.554688 133.640625 C 413.621094 134.902344 411.113281 136.167969 408.183594 137.433594 C 359.640625 160.621094 319.472656 194.34375 288.921875 234.394531 C 280.972656 244.511719 273.859375 255.476562 267.164062 266.4375 C 272.605469 255.476562 278.460938 244.933594 285.15625 234.816406 C 312.355469 192.238281 349.597656 155.136719 395.628906 127.738281 C 398.140625 126.050781 401.070312 124.785156 403.578125 123.101562 C 410.273438 89.792969 412.367188 55.226562 409.019531 20.65625 C 409.4375 20.234375 410.273438 20.234375 410.695312 19.8125 C 416.96875 16.863281 423.667969 13.914062 429.945312 11.382812 Z M 429.945312 11.382812 "/>
<path style=" stroke:none;fill-rule:nonzero;fill:rgb(0%,0%,0%);fill-opacity:1;" d="M 383.914062 344.847656 C 380.566406 348.21875 376.800781 351.59375 372.617188 354.546875 C 370.105469 356.230469 367.59375 357.914062 365.082031 359.605469 C 323.65625 384.476562 270.511719 372.671875 242.472656 334.308594 C 240.800781 331.777344 239.125 329.25 237.453125 326.71875 C 237.035156 325.878906 236.199219 324.613281 235.777344 323.769531 C 226.992188 307.328125 223.644531 288.777344 225.320312 270.230469 C 225.734375 266.855469 225.734375 263.902344 226.15625 260.535156 C 229.082031 245.777344 235.777344 231.867188 244.984375 220.0625 C 296.039062 254.207031 342.902344 295.945312 383.914062 344.847656 Z M 383.914062 344.847656 "/>
<path style=" stroke:none;fill-rule:nonzero;fill:rgb(0%,0%,0%);fill-opacity:1;" d="M 406.089844 0 C 407.347656 6.742188 408.183594 13.492188 408.601562 20.65625 C 409.4375 28.246094 409.859375 35.410156 410.273438 43 C 411.113281 69.980469 409.019531 96.964844 403.578125 123.101562 C 401.070312 124.363281 398.140625 126.050781 395.628906 127.738281 C 349.597656 155.136719 312.355469 192.238281 285.15625 234.816406 C 278.460938 244.933594 272.605469 255.476562 267.164062 266.4375 C 256.28125 287.933594 248.332031 310.699219 242.472656 333.886719 C 241.21875 331.777344 239.964844 330.09375 238.289062 327.984375 C 237.871094 327.5625 237.453125 326.71875 237.453125 326.296875 C 237.035156 325.457031 236.199219 324.191406 235.777344 323.347656 C 235.363281 322.925781 234.941406 322.082031 234.941406 321.238281 C 228.667969 308.589844 225.320312 294.679688 225.320312 280.769531 C 225.320312 276.972656 225.320312 273.179688 225.734375 269.808594 C 226.15625 266.855469 226.15625 263.484375 226.574219 260.535156 C 226.574219 260.535156 226.574219 260.535156 226.574219 260.113281 C 238.289062 159.777344 294.78125 66.1875 387.679688 10.539062 C 393.535156 6.742188 399.816406 3.375 406.089844 0 Z M 406.089844 0 "/>
<path style=" stroke:none;fill-rule:nonzero;fill:rgb(0%,0%,0%);fill-opacity:1;" d="M 449.191406 437.59375 C 450.03125 438.859375 450.863281 440.125 451.285156 441.386719 C 462.164062 460.359375 472.207031 479.332031 480.996094 499.144531 C 475.554688 491.132812 469.28125 483.96875 462.164062 477.644531 C 443.753906 460.78125 420.320312 450.664062 396.46875 448.132812 C 393.121094 421.152344 386.839844 393.75 377.21875 367.613281 C 378.054688 366.769531 379.3125 366.347656 380.144531 365.503906 C 384.332031 362.554688 388.097656 359.183594 391.863281 355.386719 C 408.183594 375.625 423.25 397.121094 437.472656 419.46875 C 436.640625 419.46875 436.21875 419.886719 435.800781 420.308594 C 432.871094 421.996094 431.617188 426.210938 433.710938 429.164062 C 435.800781 432.113281 439.566406 433.378906 442.496094 431.269531 C 443.335938 430.847656 443.753906 430.425781 444.167969 429.585938 C 446.261719 432.113281 447.9375 435.066406 449.191406 437.59375 Z M 449.191406 437.59375 "/>
<path style=" stroke:none;fill-rule:nonzero;fill:rgb(0%,0%,0%);fill-opacity:1;" d="M 221.96875 170.738281 C 222.386719 175.375 221.96875 180.433594 220.714844 185.070312 C 220.296875 186.335938 219.878906 187.601562 219.878906 189.285156 C 219.039062 193.082031 217.785156 197.296875 216.949219 201.09375 C 214.855469 212.050781 213.183594 222.589844 211.925781 233.550781 C 209.835938 255.898438 210.671875 278.660156 214.019531 301.425781 C 208.164062 282.453125 200.210938 264.328125 189.746094 246.621094 C 147.902344 175.375 77.605469 131.109375 1.859375 120.148438 C 12.324219 120.992188 22.785156 121.835938 33.246094 123.941406 C 57.933594 130.265625 82.207031 137.855469 105.640625 146.710938 C 120.285156 152.1875 134.511719 158.089844 148.320312 164.835938 C 151.25 155.558594 157.527344 147.128906 166.734375 142.070312 C 183.050781 133.21875 203.558594 138.277344 214.4375 153.03125 C 219.039062 158.511719 221.132812 164.414062 221.96875 170.738281 Z M 221.96875 170.738281 "/>
</g>
</svg>